Coordinates
version=1
nRows=17
nColumns=36
inDegrees=yes

Units are S.I. units (second, meters, Newtons, ...)
If the header above contains a line with 'inDegrees', this indicates whether rotational values are in degrees (yes) or radians (no).

endheader
time	pelvis_tilt	pelvis_list	pelvis_rotation	pelvis_tx	pelvis_ty	pelvis_tz	hip_flexion_r	hip_adduction_r	hip_rotation_r	knee_angle_r	knee_angle_r_beta	ankle_angle_r	subtalar_angle_r	mtp_angle_r	hip_flexion_l	hip_adduction_l	hip_rotation_l	knee_angle_l	knee_angle_l_beta	ankle_angle_l	subtalar_angle_l	mtp_angle_l	lumbar_extension	lumbar_bending	lumbar_rotation	arm_flex_r	arm_add_r	arm_rot_r	elbow_flex_r	pro_sup_r	arm_flex_l	arm_add_l	arm_rot_l	elbow_flex_l	pro_sup_l
     45.51666670	     -0.64822147	      1.23202141	    180.60669933	      0.49256494	      1.10801315	      0.73142360	     24.89467319	     -2.39470179	     -0.02940355	     47.69548728	      0.83244329	     -4.84031867	     -8.45332128	     -7.49999987	      1.00094120	     -1.07162034	      6.01520095	     12.94271322	      0.22589296	     -2.85834105	     -6.34594201	     -7.49999987	    -16.43384354	     -0.66824181	     -0.02212368	      3.25958703	    -14.08812834	      2.65777054	     26.52912388	    102.28598889	     22.09208038	    -13.12916290	      8.73298075	     21.86816793	    103.81946468
     45.53333330	     -0.48647203	      1.08632567	    180.68118590	      0.49391010	      1.10804573	      0.72948807	     23.61031440	     -2.71608225	     -0.78586593	     39.27674095	      0.68550845	     -6.99966367	     -9.29534273	     -7.49999987	     -0.45738074	     -1.15595444	      5.90487679	     11.53810752	      0.20137797	     -2.24112306	     -5.42844201	     -7.49999987	    -16.51452279	     -0.81438754	     -0.27916002	      2.69746173	    -13.35106959	      2.02156481	     26.74577339	    101.34264155	     22.05396656	    -13.70768164	      7.70987717	     23.84280842	    102.48662080
     45.55000000	      0.08451773	      0.66496547	    180.65670568	      0.49597321	      1.10560348	      0.72837568	     22.79331411	     -3.26532548	     -1.35771727	     31.07685509	      0.54239344	     -9.08710725	     -9.38361456	     -7.49999987	     -1.23302495	     -0.88656874	      5.72940200	     10.67531740	      0.18631944	     -1.57748149	     -4.91418469	     -7.49999987	    -16.02876055	     -1.24766096	     -0.31064721	      1.99925606	    -12.72108403	      1.77887625	     26.94516319	     99.94883666	     21.97424869	    -14.20058863	      7.09866231	     25.40720994	    100.80232778
     45.56666670	      0.42281050	     -0.06135704	    180.75915656	      0.49732330	      1.10379501	      0.72756363	     21.87447457	     -4.14021344	     -1.99028541	     23.46083244	      0.40946877	    -10.72566584	     -8.44976471	     -7.49999987	     -2.07755870	     -0.26706237	      5.93736612	     10.23431773	      0.17862254	     -0.61980583	     -4.63631032	     -7.49999987	    -15.80215856	     -1.95757070	     -0.90701747	      1.91146893	    -11.82881836	      0.76425734	     26.54080304	    101.45640904	     21.48361793	    -14.82739815	      4.86919661	     27.63656187	    100.80295088
     45.58333330	      0.75719494	     -0.86743873	    180.70773327	      0.49805941	      1.10265620	      0.72544663	     21.17131160	     -4.91226435	     -2.41551915	     16.78692140	      0.29298705	    -11.95518710	     -6.78943771	     -7.49999987	     -2.80963269	      0.43616557	      5.84050842	     10.13939858	      0.17696589	      0.65229064	     -4.20245982	     -7.49999987	    -15.47088041	     -2.81380503	     -1.06079120	      1.54969153	    -11.20419202	      0.12881913	     26.55534337	    102.85933511	     21.23274497	    -15.37335167	      3.62236496	     29.49546386	    101.23612779
     45.60000000	      0.96812486	     -1.58227135	    180.63399436	      0.49896306	      1.10193674	      0.72260073	     20.58085580	     -5.43148470	     -2.62053612	     11.51940797	      0.20105160	    -12.47574132	     -4.75487622	     -7.49999987	     -3.46491095	      1.06091947	      5.56875665	     10.47908415	      0.18289452	      2.02226727	     -3.74752897	     -7.49999987	    -15.24208594	     -3.60929972	     -0.93859716	      1.10427137	    -10.64345408	     -0.79710738	     26.68837768	    103.49938332	     21.25170375	    -15.79483103	      2.86586976	     31.16110582	    101.26676670
     45.61666670	      1.11852603	     -2.15825790	    180.55479385	      0.49949441	      1.10076461	      0.72045300	     20.15702409	     -5.72171111	     -2.44757943	      7.74164463	      0.13511719	    -12.35999027	     -2.80832774	     -7.49999987	     -3.86435473	      1.55636575	      5.03139384	     11.40654149	      0.19908171	      3.48226384	     -3.27892592	     -7.49999987	    -15.06113083	     -4.27164231	     -0.72754399	      0.71972898	    -10.22977240	     -1.46517281	     26.80736703	    103.38170333	     21.49373208	    -16.12146736	      2.65727311	     32.54926627	    100.73664038
     45.63333330	      1.24041521	     -2.68475063	    180.50539572	      0.49957073	      1.09865286	      0.71932471	     19.80940243	     -5.95918605	     -1.76768125	      5.16131045	      0.09008186	    -11.93457902	     -1.36900999	     -7.49999987	     -3.64157512	      1.97436676	      4.57982783	     13.38273251	      0.23357275	      5.02792924	     -3.17928676	     -7.49999987	    -14.97850579	     -4.85066990	     -0.42797457	      0.47664069	    -10.01174457	     -1.61251319	     26.72104839	    103.21095923	     22.00760261	    -16.24873557	      2.66298322	     33.46554390	    100.54855954
     45.65000000	      1.25812354	     -3.33002626	    180.27757143	      0.49951707	      1.09662926	      0.71828080	     19.57795847	     -6.29329088	     -0.61047916	      3.79087604	      0.06616327	    -11.28845446	     -0.12360347	     -7.49999987	     -2.62556212	      2.38848951	      3.95057405	     16.90673193	      0.29507814	      7.11594936	     -2.79244546	     -7.49999987	    -15.11739692	     -5.55300195	     -0.29268804	      0.84127464	     -9.70656470	     -1.15295728	     25.80814750	     98.01875277	     22.37986445	    -16.72168702	      4.03030565	     34.52824480	     94.75032116
     45.66666670	      1.30118378	     -3.61104225	    180.05779662	      0.49890588	      1.09401397	      0.71727797	     19.45174506	     -6.27753351	      0.44782176	      3.44203936	      0.06007492	    -10.81085528	      0.48491813	     -7.49999987	     -1.20488365	      2.34174655	      3.38000782	     21.33178493	      0.37230988	      8.70066354	     -2.26555498	     -7.49999987	    -15.36712039	     -5.72879639	     -0.28451294	      1.02959018	     -9.60544789	     -3.01362202	     26.19833301	    103.81976861	     22.06212337	    -16.78684192	      2.40999818	     36.40933230	     99.46717004
     45.68333330	      1.18980744	     -3.49639191	    179.98636255	      0.49733043	      1.09096718	      0.71596537	     19.18777067	     -5.91537934	      1.32079102	      3.90378877	      0.06813397	    -10.39113217	      0.69152029	     -7.49999987	     -0.19536990	      2.00915540	      3.18997193	     25.40954261	      0.44348018	      9.71139030	     -2.30890153	     -7.49999987	    -15.55618078	     -5.42753371	      0.06260971	      1.36058634	     -9.91635811	     -3.09014412	     25.94374435	    103.80508706	     22.33005682	    -16.56818183	      2.45475462	     36.93773515	     99.44724258
     45.70000000	      1.56488939	     -3.00756623	    179.96917436	      0.49523863	      1.08514001	      0.71401211	     19.43030671	     -5.16840226	      2.09994704	      4.95193476	      0.08642757	     -9.96505991	      0.71764035	     -7.49999987	      0.53479876	      1.26969667	      2.46656846	     28.36411599	      0.49504721	      9.79517538	     -1.58988593	     -7.49999987	    -14.75054342	     -4.59440276	     -0.14230229	      2.23918716	    -10.32752678	     -1.94699244	     24.90027033	    103.17179001	     21.52632473	    -16.55331060	      1.82479812	     37.89258453	     98.68407011
     45.71666670	      1.66585199	     -2.39658077	    180.01026400	      0.49462991	      1.07826722	      0.71193132	     19.41686221	     -4.30894731	      2.72648969	      6.42557744	      0.11214748	     -9.50157416	      0.40841773	     -7.49999987	      0.86640267	      0.43875868	      1.86211018	     31.26957331	      0.54575701	      8.83490882	     -1.65742177	     -7.49999987	    -14.11449557	     -3.57180702	      0.09976521	      2.74910518	    -10.86113677	     -1.26288464	     24.42434878	    101.42587793	     21.40686848	    -16.20565744	      2.16629411	     37.88491472	     97.00738816
     45.73333330	      1.62051107	     -1.83692135	    180.00830885	      0.49512773	      1.07096988	      0.70986264	     19.39173726	     -3.48586509	      3.34591112	      8.03652803	      0.14026387	     -9.00910811	     -0.40381922	     -7.49999987	      1.62032650	     -0.38258040	      1.24005814	     35.15984544	      0.61365507	      7.41377274	     -2.28492183	     -7.49999987	    -13.78615699	     -2.58038742	      0.24416275	      3.37354821	    -11.50002714	     -0.11546088	     24.32689494	    101.26783345	     21.12046261	    -15.87252960	      1.97263790	     38.21139623	     96.85330802
     45.75000000	      1.25756548	     -1.33654658	    179.79839673	      0.49487181	      1.06414180	      0.70760076	     19.11667955	     -2.68089448	      3.88114851	      9.61775921	      0.16786156	     -8.07883070	     -1.06195968	     -7.49999987	      2.59742449	     -1.21209571	      0.47760255	     39.99075313	      0.69797031	      5.61979222	     -3.18904848	     -7.49999987	    -13.96510684	     -1.65008723	      0.72888870	      3.85497885	    -12.07827957	     -0.16078646	     24.65102067	    100.66297107	     20.92561779	    -15.45248236	      1.92947379	     38.37831070	     96.40566130
     45.76666670	      0.80778051	     -0.93706495	    179.47180700	      0.49286657	      1.06002679	      0.70352858	     18.56993726	     -1.94500060	      4.25441925	     10.81305901	      0.18872348	     -7.61669924	     -1.79314644	     -7.49999987	      3.86449034	     -2.03182508	     -0.29927883	     45.37818435	      0.79199873	      3.29634825	     -4.23268626	     -7.49999987	    -14.28786180	     -0.96590576	      1.31346012	      4.37224368	    -12.52384056	     -0.13589789	     24.56493036	    100.72761031	     20.76033676	    -15.05370550	      1.79075060	     38.18303886	     96.43768799
     45.78333330	      1.05883125	     -0.51974895	    179.16720004	      0.48851299	      1.06003830	      0.69639628	     18.56137408	     -1.12882062	      4.46216319	     11.96273241	      0.20878907	     -7.55985632	     -2.80526356	     -7.49999987	      6.06532173	     -2.93205636	     -0.76845776	     50.94550987	      0.88916689	      0.46664720	     -5.62516001	     -7.49999987	    -13.43744083	     -0.40093742	      2.14920810	      4.26909434	    -12.98546898	      0.41504402	     24.30649728	    100.92442778	     20.33380921	    -14.16084315	      0.80264788	     37.00677037	     96.54539759
